<?xml version="1.0" standalone="no"?>
<!DOCTYPE svg PUBLIC "-//W3C//DTD SVG 20010904//EN"
 "http://www.w3.org/TR/2001/REC-SVG-20010904/DTD/svg10.dtd">
<svg version="1.0" xmlns="http://www.w3.org/2000/svg"
 width="250.000000pt" height="250.000000pt" viewBox="0 0 250.000000 250.000000"
 preserveAspectRatio="xMidYMid meet">
<metadata>
Created by potrace 1.11, written by Peter Selinger 2001-2013
</metadata>
<g transform="translate(0.000000,250.000000) scale(0.100000,-0.100000)"
fill="#000000" stroke="none">
<path d="M0 1250 l0 -1250 1250 0 1250 0 0 1250 0 1250 -1250 0 -1250 0 0
-1250z m1355 956 c138 -25 317 -91 329 -122 3 -7 -9 -21 -27 -33 -77 -47 -127
-126 -127 -200 0 -93 49 -152 156 -187 27 -9 57 -24 67 -32 29 -25 17 -112
-16 -112 -7 0 -24 11 -39 25 l-27 25 -128 -25 c-70 -14 -135 -28 -144 -31 -10
-2 -55 -42 -100 -87 -46 -46 -177 -173 -291 -284 -115 -110 -208 -207 -208
-214 0 -18 365 -383 377 -378 25 9 594 575 598 594 2 11 11 56 21 100 29 132
30 173 4 200 l-21 23 20 33 c27 43 27 113 2 155 -16 26 -93 74 -119 74 -5 0
-23 7 -41 16 -35 17 -61 60 -61 99 0 37 35 100 68 124 39 27 112 46 146 37 56
-14 208 -206 263 -331 28 -64 58 -171 72 -256 44 -268 -74 -600 -279 -787
-209 -190 -504 -282 -772 -241 -330 52 -596 256 -723 557 -18 43 -38 105 -45
138 -6 32 -16 78 -21 101 -32 148 23 404 124 580 183 314 587 503 942 439z"/>
<path d="M1080 2016 c0 -2 7 -9 15 -16 12 -10 15 -10 15 4 0 9 -7 16 -15 16
-8 0 -15 -2 -15 -4z"/>
<path d="M720 1912 c-5 -92 -1 -110 20 -97 8 5 8 11 1 19 -6 7 -11 48 -13 91
l-3 80 -5 -93z"/>
<path d="M804 1977 c10 -15 12 -27 6 -37 -15 -23 -12 -33 5 -16 18 18 19 48 3
64 -20 20 -29 13 -14 -11z"/>
<path d="M1330 1910 c0 -75 3 -90 16 -90 8 0 13 4 10 8 -3 5 -6 45 -7 90 -2
45 -6 82 -11 82 -4 0 -8 -40 -8 -90z"/>
<path d="M1410 1934 c0 -11 5 -14 16 -10 9 3 21 6 27 6 16 0 -14 20 -30 20 -7
0 -13 -7 -13 -16z"/>
<path d="M877 1920 c3 -11 7 -20 9 -20 2 0 4 9 4 20 0 11 -4 20 -9 20 -5 0 -7
-9 -4 -20z"/>
<path d="M960 1900 c-8 -40 0 -67 26 -80 13 -8 27 -10 30 -7 4 4 -5 11 -19 16
-21 8 -26 18 -29 53 -3 32 -5 37 -8 18z"/>
<path d="M1098 1865 c-3 -47 6 -65 24 -47 6 6 6 12 -1 16 -16 10 -13 36 4 36
8 0 15 7 15 16 0 8 -5 12 -11 8 -6 -3 -15 -1 -19 6 -5 7 -9 -7 -12 -35z"/>
<path d="M880 1825 c0 -9 5 -15 11 -13 6 2 11 8 11 13 0 5 -5 11 -11 13 -6 2
-11 -4 -11 -13z"/>
<path d="M1172 1831 c4 -13 18 -16 19 -4 0 4 -5 9 -11 12 -7 2 -11 -2 -8 -8z"/>
<path d="M1430 1830 c0 -5 5 -10 11 -10 5 0 7 5 4 10 -3 6 -8 10 -11 10 -2 0
-4 -4 -4 -10z"/>
<path d="M1040 1670 c0 -29 2 -51 4 -49 8 8 10 88 3 95 -4 4 -7 -17 -7 -46z"/>
<path d="M982 1665 c0 -16 2 -22 5 -12 2 9 2 23 0 30 -3 6 -5 -1 -5 -18z"/>
<path d="M902 1640 c0 -14 2 -19 5 -12 2 6 2 18 0 25 -3 6 -5 1 -5 -13z"/>
<path d="M600 1477 c0 -53 3 -97 8 -97 7 0 5 181 -3 189 -3 2 -5 -39 -5 -92z"/>
<path d="M461 1514 c-1 -20 27 -54 43 -54 12 0 34 -25 39 -46 3 -14 5 -12 6 8
1 21 -7 33 -34 50 -19 13 -39 32 -44 43 -10 20 -10 20 -10 -1z"/>
<path d="M1116 1491 c-4 -5 -2 -12 3 -15 5 -4 12 -2 15 3 4 5 2 12 -3 15 -5 4
-12 2 -15 -3z"/>
<path d="M676 1475 c4 -8 8 -15 10 -15 2 0 4 7 4 15 0 8 -4 15 -10 15 -5 0 -7
-7 -4 -15z"/>
<path d="M758 1435 c2 -30 8 -55 14 -55 6 0 7 7 4 16 -3 9 -6 33 -6 55 0 21
-3 39 -7 39 -5 0 -6 -25 -5 -55z"/>
<path d="M839 1398 c5 -93 8 -86 13 30 2 36 -1 62 -7 62 -6 0 -8 -34 -6 -92z"/>
<path d="M907 1483 c6 -4 13 -26 16 -48 4 -40 4 -40 3 4 -1 30 -6 46 -16 48
-10 3 -11 2 -3 -4z"/>
<path d="M460 1402 c0 -12 19 -26 26 -19 2 2 -2 10 -11 17 -9 8 -15 8 -15 2z"/>
<path d="M1050 1395 c0 -8 5 -15 10 -15 6 0 10 7 10 15 0 8 -4 15 -10 15 -5 0
-10 -7 -10 -15z"/>
<path d="M680 1390 c0 -5 4 -10 9 -10 6 0 13 5 16 10 3 6 -1 10 -9 10 -9 0
-16 -4 -16 -10z"/>
</g>
</svg>
